<?xml version="1.0" encoding="UTF-8"?>
<svg id="Camada_1" data-name="Camada 1" xmlns="http://www.w3.org/2000/svg" width="2000" height="2000" viewBox="0 0 2000 2000">
  <defs>
    <style>
      .cls-1 {
        fill: none;
        stroke: #e6e6e6;
        stroke-miterlimit: 10;
        stroke-width: 58.51px;
      }

      .cls-2 {
        fill: #e6e6e6;
      }
    </style>
  </defs>
  <g>
    <g>
      <path class="cls-1" d="m207.48,869.14C303.98-9.82,1659.3-61.04,1792.44,861.42"/>
      <g>
        <path class="cls-2" d="m94.89,852.76c40.3,29.73,71.66,70.87,96.06,114.64,3.62,6.5,12.65,7.19,17.24,1.33,30.9-39.52,69.3-73.85,113.23-98.01,3.03-1.67,5.01-4.76,5.28-8.21l.32-4.04c.66-8.37-8.4-13.99-15.62-9.69-37.98,22.62-72.11,49.66-100.54,82.51-4.57,5.29-12.91,4.65-16.62-1.28-23.21-37.06-52.82-70-86.24-97.89-6.43-5.37-16.24-1.2-16.9,7.15l-.35,4.39c-.28,3.55,1.28,7,4.15,9.11Z"/>
        <path class="cls-2" d="m100.45,782.56c40.3,29.73,71.66,70.87,96.06,114.62,3.63,6.5,12.65,7.19,17.24,1.33,30.9-39.51,69.3-73.83,113.23-97.99,3.03-1.67,5.01-4.76,5.28-8.21l.32-4.04c.66-8.37-8.4-13.99-15.62-9.69-37.98,22.61-72.11,49.67-100.54,82.5-4.57,5.28-12.91,4.64-16.62-1.28-23.21-37.04-52.83-69.98-86.25-97.88-6.43-5.37-16.24-1.2-16.9,7.15l-.35,4.39c-.28,3.55,1.28,7,4.15,9.11Z"/>
      </g>
    </g>
    <g>
      <path class="cls-1" d="m1792.48,1127.14c-95.36,870.85-1434.2,932.27-1582.52,22.04"/>
      <g>
        <path class="cls-2" d="m1904.38,1145.92c-39.34-29.21-70.13-69.29-94.24-112.03-4.18-7.41-14.53-8.21-19.8-1.54-30.46,38.54-68.07,72.04-111,95.82-3.51,1.94-5.8,5.52-6.11,9.51h0c-.76,9.7,9.77,16.25,18.1,11.22,36.29-21.94,68.98-48,96.44-79.38,5.24-5.99,14.79-5.25,19.05,1.47,22.46,35.41,50.78,67.01,82.66,94,7.45,6.31,18.92,1.53,19.68-8.2l.02-.31c.32-4.11-1.5-8.09-4.81-10.55Z"/>
        <path class="cls-2" d="m1899.25,1209.42c-39.89-29.5-71.02-70.18-95.3-113.49-3.84-6.85-13.45-7.6-18.3-1.42-30.71,39.11-68.76,73.09-112.26,97.1-3.24,1.79-5.36,5.1-5.65,8.79l-.18,2.24c-.71,8.96,9.02,14.99,16.73,10.37,37.2-22.31,70.66-48.91,98.64-81.06,4.91-5.64,13.81-4.97,17.8,1.36,22.87,36.26,51.88,68.56,84.58,96.02,6.91,5.8,17.48,1.42,18.19-7.58l.2-2.58c.3-3.8-1.38-7.48-4.44-9.75Z"/>
      </g>
    </g>
  </g>
  <g>
    <path class="cls-2" d="m660.64,408.49l65.19-57.18,105.68,223.46c6.47,14.25,16.6,36.63,30.4,67.14,45.31,31.59,73.9,49.13,85.76,52.62,22.06,6.13,40.28,2.88,54.68-9.75,10.47-9.18,16.37-22,17.69-38.45,1.32-16.44-4.62-35.09-17.81-55.95l15.71-13.78c29.4,40.92,44.34,73.91,44.79,98.99.45,25.07-7.3,44.62-23.27,58.63-14.92,13.09-33.98,18.69-57.18,16.8-23.2-1.89-57.78-19.26-103.75-52.13,8.46,32.89,12.36,60.03,11.7,81.46-1.21,29.79-7.34,56.59-18.4,80.42-11.06,23.83-28.11,45.85-51.15,66.06-57.86,50.75-117.28,68.83-178.26,54.23-60.99-14.6-113.06-46.51-156.24-95.73-50.52-57.59-75.49-118.26-74.89-182.02.59-63.75,22.35-114.45,65.29-152.12,29.84-26.18,64.14-40.16,102.87-41.95,38.74-1.78,89.1,13.92,151.09,47.09l-69.91-147.82Zm94.75,203.86c-61.44-41.53-112.65-63.19-153.62-65.02-40.97-1.81-72.98,7.38-96.01,27.59-25.66,22.51-34.65,55.3-26.98,98.36,7.67,43.07,38.49,95.37,92.46,156.89,31.92,36.39,60.67,61.78,86.26,76.16,25.58,14.39,50.77,20.78,75.55,19.19,24.78-1.58,45.42-9.61,61.91-24.08,20.16-17.68,30.46-43.16,30.91-76.45.73-45.11-22.77-115.98-70.49-212.64Z"/>
    <path class="cls-2" d="m1073.44,893.21l-48.26,60.32c-30.84,38.55-69.01,76.5-114.5,113.87l-60.33-48.26c30.03-24.37,49.92-41.43,59.68-51.19,29.74-30.85,50.81-54,63.18-69.46l291.83-364.8c34.07-42.59,63.57-70.81,88.48-84.63,24.91-13.82,53.9-18.84,86.95-15.03,33.05,3.81,64.93,17.99,95.63,42.54,42.59,34.07,67.48,72.72,74.67,115.93,7.19,43.21-1.78,80.53-26.91,111.94-16.18,20.23-36.73,35.3-61.64,45.23s-53.53,12.89-85.84,8.89c39.4,81.48,33.41,154.34-17.98,218.59-22.84,28.56-50.83,49.88-83.95,63.97-33.13,14.09-66.54,18.29-100.23,12.6-33.7-5.69-62.92-18.43-87.67-38.23-15.95-12.76-29.52-28.11-40.73-46.05-11.21-17.94-22-43.36-32.38-76.24Zm22.56-28.2c10.13,34.65,20.92,62.39,32.34,83.24,8.66,15.52,19.42,28.41,32.27,38.69,24.03,19.22,52.15,25.43,84.35,18.6,32.19-6.83,65.52-31.78,99.98-74.85,21.7-27.13,36.82-53.96,45.37-80.49,8.54-26.53,12.76-59.74,12.67-99.62-20.8-7.66-37.15-16.25-49.05-25.77-14.28-11.42-22.62-21.61-25.02-30.55-2.41-8.95-1.61-15.92,2.39-20.92,3.61-4.52,9.11-6.76,16.49-6.71,7.37.04,16.06,4.07,26.06,12.06,11.66,9.32,26.79,26.51,45.41,51.54,43.11-19.75,76.48-44.38,100.08-73.89,23.99-29.98,35.17-59.09,33.55-87.31-1.62-28.23-13.38-51.09-35.27-68.6-27.61-22.09-58.35-27.56-92.23-16.42-22.37,7.48-47.26,28.34-74.67,62.61l-254.71,318.4Z"/>
    <path class="cls-2" d="m1123.61,1765.1l7.07-361.06-74.56-88.39c-30.45-36.23-53.35-56.99-68.7-62.27-15.35-5.28-31.62-3.73-48.81,4.66-19.84,9.68-32.86,23.08-39.09,40.2-6.22,17.12-4.25,38.76,5.88,64.92l-14.68,7.16c-3.48-6.48-6.07-11.44-7.75-14.88-16.39-33.59-20.53-67.92-12.42-102.99,5.1-23.12,18.23-39.84,39.38-50.16,14.82-7.23,29.95-9.77,45.39-7.65,15.45,2.12,30.62,9.05,45.51,20.78,23.78,19.19,42.03,36.47,54.78,51.87l75.92,91.17,5.07-257.42,69.43-33.88-6,373.31,86.47,102.72c18.87,22.56,34.67,35.65,47.4,39.26,12.74,3.61,27.17,1.48,43.3-6.39,17.72-8.65,29.3-21.17,34.72-37.57,5.43-16.4,3.2-37.42-6.69-63.05l13.89-6.78c21.66,47.07,29.24,86.43,22.74,118.1-4.7,23.25-17.23,39.85-37.6,49.78-21.16,10.32-41.37,10.85-60.63,1.58-19.26-9.27-37.99-24.86-56.21-46.75l-88.21-106.29-4.16,245.19-71.42,34.84Z"/>
    <path class="cls-2" d="m337.79,1103.67l-18.45-78.99c12.53,2.4,72.53,15.82,179.99,40.26,44.93,10.13,78.79,17.01,101.59,20.66,9.4,1.79,19.7,3.88,30.89,6.25l129.06,27.22c19.67-6.92,37.9-12.84,54.71-17.77,16.81-4.92,32.14-9,46.02-12.24,42.88-10.02,76.73-14.59,101.54-13.74,17.43.59,30.06,3.79,37.91,9.6,7.84,5.82,12.76,12.98,14.75,21.5,2.43,10.4.17,20.66-6.78,30.76-6.95,10.1-17.37,16.78-31.24,20.02-24.29,5.67-53.41,7.32-87.38,4.95-33.97-2.37-72.92-8.57-116.82-18.6-156.07,60.73-249.22,101.86-279.44,123.38-30.22,21.52-42.49,44.43-36.82,68.71,3.46,14.82,10.68,25.44,21.65,31.85,10.97,6.41,32.75,8.15,65.31,5.2l4.31,18.45c-9.39,2.52-16.44,4.34-21.17,5.44-43.52,10.16-78.3,9.31-104.35-2.56-19.41-9.1-31.67-24.53-36.75-46.29-4.42-18.92-2.35-35.69,6.2-50.33,12.25-20.15,43.83-42.99,94.73-68.52,66.18-32.74,139.34-63.3,219.51-91.67l-150.2-8.81c-67.41-3.87-140.33-12.12-218.76-24.72Z"/>
  </g>
</svg>