<?xml version="1.0" encoding="UTF-8"?>
<svg id="Camada_1" data-name="Camada 1" xmlns="http://www.w3.org/2000/svg" width="2000" height="2000" viewBox="0 0 2000 2000">
  <defs>
    <style>
      .cls-1 {
        fill: #1a1f3c;
      }

      .cls-2 {
        fill: none;
        stroke: #e6e6e6;
        stroke-miterlimit: 10;
        stroke-width: 58.51px;
      }

      .cls-3 {
        fill: #e6e6e6;
      }
    </style>
  </defs>
  <rect class="cls-1" x="-12" y="-126" width="2246" height="2556"/>
  <g>
    <path class="cls-3" d="m1030.13,504.28c-7.02-.64-12.77-2.98-17.24-7.02-4.47-4.05-7.38-9.45-8.73-16.22-1.35-6.77-.88-14.55,1.39-23.36,2.33-8.85,5.86-16.34,10.59-22.45,4.73-6.11,10.26-10.67,16.59-13.66,6.33-2.99,13.01-4.17,20.03-3.53,5.46.49,9.57,1.77,12.33,3.83,2.77,2.06,4.72,4.3,5.85,6.72,1.13,2.42,1.98,4.44,2.54,6.07l1.14.1,3.43-13.36,13.71,1.24-21.69,83.43-13.26-1.2,3.31-12.91-1.59-.14c-1.41,1.55-3.31,3.4-5.7,5.56-2.38,2.15-5.43,3.97-9.12,5.44-3.7,1.47-8.22,1.97-13.58,1.48Zm5.35-11.81c5.15.47,9.83-.48,14.05-2.85,4.21-2.37,7.85-5.83,10.91-10.39,3.06-4.56,5.38-9.93,6.96-16.1,1.63-6.17,2.13-11.63,1.52-16.4-.61-4.76-2.35-8.59-5.22-11.47-2.87-2.88-6.88-4.56-12.03-5.02-5.41-.49-10.27.48-14.59,2.92-4.32,2.43-7.97,5.89-10.94,10.35-2.98,4.47-5.21,9.56-6.69,15.28-1.5,5.82-1.96,11.2-1.39,16.14.57,4.94,2.29,8.98,5.17,12.12,2.87,3.14,6.96,4.95,12.26,5.43Z"/>
    <path class="cls-3" d="m1166.84,533.42c-5.13-1.91-8.83-4.25-11.1-7.02-2.27-2.77-3.71-5.52-4.31-8.26-.6-2.74-.97-5.03-1.1-6.86l-1.28-.48-6.74,11.53-12.4-4.62,57.2-99.65,12.83,4.78-21.2,36.83,1.07.4c1.8-1.06,4.06-2.32,6.76-3.77,2.71-1.45,5.95-2.42,9.73-2.91,3.78-.49,8.16.2,13.15,2.06,5.84,2.18,10.43,5.35,13.75,9.51s5.26,9.05,5.82,14.67c.56,5.62-.4,11.73-2.86,18.34-2.3,6.18-5.49,11.93-9.56,17.26-4.07,5.33-8.74,9.77-14.02,13.32-5.28,3.55-10.96,5.85-17.05,6.88-6.09,1.03-12.33.36-18.69-2.02Zm2.57-12.11c4.75,1.77,9.38,2.17,13.88,1.2,4.5-.97,8.72-2.91,12.64-5.8,3.92-2.89,7.36-6.38,10.31-10.45,2.95-4.07,5.25-8.31,6.9-12.73,2.27-6.08,2.69-11.6,1.25-16.54-1.43-4.94-5.21-8.56-11.34-10.84-4.8-1.79-9.43-2.23-13.88-1.32-4.45.91-8.58,2.8-12.38,5.66-3.8,2.86-7.15,6.34-10.07,10.45-2.91,4.11-5.23,8.47-6.95,13.08-2.36,6.32-2.79,11.91-1.3,16.77,1.49,4.86,5.13,8.37,10.93,10.53Z"/>
    <path class="cls-3" d="m1279.17,591.86c-5.59-3.96-9.56-8.53-11.91-13.71-2.36-5.18-3.11-10.67-2.26-16.48.85-5.8,3.3-11.56,7.34-17.27,3.9-5.5,8.54-10.23,13.92-14.19,5.38-3.96,11.15-6.85,17.29-8.68,6.15-1.83,12.38-2.32,18.71-1.47,6.33.85,12.41,3.34,18.24,7.48,3.43,2.43,6.29,5.13,8.58,8.09,2.29,2.96,3.93,6.07,4.95,9.33,1.01,3.27,1.37,6.6,1.08,9.99-.29,3.4-1.28,6.77-2.97,10.11l-12.64-5.32c1.05-1.93,1.72-3.88,2-5.85.28-1.98.18-3.93-.32-5.87s-1.4-3.8-2.7-5.6c-1.31-1.8-3.08-3.49-5.31-5.07-4.22-2.99-8.65-4.64-13.28-4.94s-9.22.4-13.75,2.1c-4.53,1.7-8.74,4.11-12.63,7.23-3.89,3.12-7.2,6.6-9.92,10.45-2.43,3.43-4.1,6.95-5,10.54-.9,3.59-.75,7.04.45,10.34,1.2,3.31,3.68,6.29,7.45,8.96,2.4,1.7,4.9,2.98,7.5,3.82,2.6.85,5.2,1.31,7.79,1.37,2.59.07,5.12-.23,7.57-.88,2.45-.65,4.73-1.63,6.84-2.94l7.75,10.9c-3.58,2.07-7.29,3.53-11.14,4.41-3.85.88-7.72,1.2-11.59.97-3.88-.23-7.68-1-11.42-2.31-3.73-1.31-7.28-3.15-10.63-5.53Z"/>
    <path class="cls-3" d="m1370.42,673.54c-5.95-7.12-8.34-14.73-7.14-22.83,1.19-8.1,5.83-15.54,13.92-22.3,5.14-4.29,10.78-7.74,16.93-10.34,6.15-2.6,12.4-4.12,18.74-4.57,6.34-.44,12.39.41,18.16,2.56,5.77,2.15,10.83,5.83,15.19,11.05,3.61,4.32,5.69,8.25,6.24,11.79.55,3.54.37,6.63-.53,9.27-.9,2.64-1.73,4.73-2.48,6.29l.59.7,36.94-21.76,8.83,10.56-99.01,58.3-8.54-10.21,11.56-6.69-.93-1.11c-2.14.21-4.79.26-7.95.15-3.16-.1-6.52-.92-10.09-2.47-3.57-1.54-7.05-4.34-10.43-8.38Zm10.96-5.99c3.29,3.93,7.12,6.58,11.5,7.94,4.38,1.36,8.97,1.72,13.78,1.07,4.81-.65,9.52-2.05,14.14-4.19,4.62-2.14,8.78-4.76,12.47-7.85,5.1-4.26,8.15-8.83,9.16-13.71,1.01-4.88-.52-9.75-4.58-14.61-3.25-3.89-7.04-6.54-11.36-7.95-4.32-1.41-8.85-1.84-13.58-1.29-4.73.55-9.36,1.85-13.9,3.89-4.54,2.04-8.66,4.61-12.35,7.7-5.06,4.23-8.24,8.89-9.54,13.97-1.3,5.09.12,10.1,4.25,15.04Z"/>
    <path class="cls-3" d="m1444.33,786.16c-2.96-6.34-4.26-12.36-3.89-18.04.37-5.69,2.3-10.83,5.81-15.43,3.5-4.6,8.49-8.42,14.97-11.44,6.75-3.15,13.61-5.04,20.57-5.66,6.96-.62,13.6-.06,19.93,1.69,6.33,1.75,11.96,4.56,16.91,8.43,4.94,3.88,8.78,8.73,11.51,14.57,2.32,4.96,3.47,9.68,3.47,14.17,0,4.48-1.11,8.47-3.31,11.96-2.2,3.49-5.44,6.24-9.72,8.23-4.32,2.02-8.53,2.62-12.62,1.82-4.1-.8-8.2-3.1-12.32-6.88s-8.34-9.13-12.66-16.04c-4.32-6.91-8.85-15.44-13.59-25.6l10.15-2.72c3.93,8.41,7.45,15.33,10.57,20.75,3.12,5.43,6.03,9.54,8.74,12.33,2.7,2.79,5.36,4.47,7.97,5.01,2.61.55,5.36.14,8.25-1.21,2.94-1.37,4.72-3.7,5.34-6.99.62-3.28,0-6.93-1.87-10.92-2.43-5.19-5.74-9.03-9.95-11.51-4.21-2.48-8.82-3.96-13.82-4.42-5-.46-9.95-.21-14.84.76-4.89.97-9.25,2.35-13.06,4.13-3.77,1.76-6.89,3.97-9.37,6.64-2.48,2.67-3.95,5.83-4.42,9.5-.47,3.66.39,7.84,2.58,12.52,2.3,4.92,5.41,8.79,9.34,11.63,3.93,2.84,8.19,4.39,12.79,4.65l2.14,13.02c-7.4-.02-14.28-2.27-20.66-6.76-6.38-4.49-11.35-10.55-14.91-18.18Z"/>
    <path class="cls-3" d="m1442.92,869.33c-.22-1.04-.39-2.08-.51-3.12-.12-1.04-.19-2.03-.21-2.99-.02-.95.02-1.91.12-2.87l12.69.78c-.1.75-.05,1.98.13,3.71.19,1.72.35,2.91.49,3.55.77,3.57,2.35,6.17,4.75,7.81,2.4,1.64,5.81,2.35,10.22,2.13l101.05-4.79c6.06-.26,11.39.46,15.99,2.17,4.59,1.71,8.37,4.38,11.32,8,2.95,3.62,5.01,8.11,6.16,13.46.41,1.93.66,3.8.73,5.6.07,1.8.1,3.63.09,5.5l-12.25-1.26c.02-.89-.12-2.26-.42-4.11-.29-1.86-.6-3.53-.92-5.02-.85-3.97-2.71-6.84-5.58-8.61-2.87-1.77-6.87-2.55-12.01-2.32l-101.2,4.82c-5.6.27-10.49-.42-14.68-2.06-4.19-1.64-7.63-4.19-10.31-7.63-2.68-3.44-4.57-7.7-5.65-12.75Zm129.82,37.2l-11.24.54-10.64-49.61,11.24-.54,10.64,49.61Z"/>
    <path class="cls-3" d="m1460.84,994.71c.11-6.54,1.05-12,2.83-16.39,1.77-4.38,4.04-7.87,6.8-10.46,2.76-2.59,5.64-4.47,8.65-5.64l6.19,11.9c-1.54.84-3.27,1.95-5.19,3.34-1.93,1.39-3.61,3.46-5.05,6.23-1.44,2.76-2.2,6.61-2.29,11.53-.12,7,1.49,13.09,4.83,18.27,3.34,5.18,8.47,8.41,15.4,9.69l16.53,3.09-.28-1.22c-1.65-1.3-3.55-3-5.7-5.12-2.15-2.12-4-4.89-5.57-8.31-1.57-3.43-2.3-7.8-2.21-13.12.1-6.03,1.45-11.32,4.03-15.87,2.59-4.55,6.31-8.07,11.17-10.58,4.86-2.5,10.74-3.7,17.64-3.58,6.49.11,12.83,1.21,19,3.29,6.18,2.08,11.75,5.04,16.7,8.88,4.96,3.84,8.89,8.44,11.79,13.82,2.9,5.37,4.3,11.41,4.18,18.1-.07,4.21-.69,7.67-1.85,10.39-1.16,2.72-2.59,4.89-4.29,6.51-1.7,1.62-3.4,2.86-5.08,3.72-1.69.86-3.1,1.53-4.22,2.02l.35,1.6,13.58,2.51-.22,13.31-87.45-16.08c-7.28-1.34-13.16-4.03-17.63-8.06-4.47-4.03-7.72-8.97-9.75-14.81-2.03-5.84-2.99-12.16-2.88-18.96Zm47.06,6.5c-.09,5.22.98,9.77,3.19,13.63,2.22,3.87,5.19,7.09,8.93,9.66,3.73,2.57,7.89,4.51,12.46,5.8,4.57,1.29,9.18,1.98,13.85,2.06,6.49.11,11.7-1.35,15.63-4.38,3.93-3.03,5.95-7.71,6.06-14.05.08-4.92-.98-9.32-3.2-13.22-2.22-3.89-5.22-7.2-9-9.93-3.78-2.73-8-4.81-12.64-6.26-4.64-1.45-9.32-2.21-14.04-2.29-6.34-.11-11.44,1.4-15.29,4.54s-5.84,7.94-5.95,14.43Z"/>
    <path class="cls-3" d="m1529.31,1133.12l-46.67-22.16,3.77-13.16,103.79,49.28-3.77,13.16-44.78-21.3.65-2.27c4.39,4,7.68,7.96,9.85,11.88,2.17,3.92,3.42,7.85,3.74,11.79.32,3.94-.1,7.94-1.26,11.98-1.58,5.51-4.06,9.89-7.44,13.14-3.38,3.25-7.6,5.06-12.64,5.44-5.04.38-10.85-1.01-17.44-4.17l-49.45-23.51,3.79-13.24,48.39,23.05c6.08,2.9,11.27,3.47,15.58,1.69,4.31-1.77,7.27-5.49,8.89-11.14,1.1-3.85,1.29-7.72.55-11.59-.74-3.88-2.39-7.46-4.95-10.76-2.56-3.29-6.1-6.01-10.61-8.14Z"/>
    <path class="cls-3" d="m1443.07,1220.58l68.55,52.27-6.41,12.1-68.55-52.27,6.41-12.1Zm76.54,66.92c1.21-2.29,2.97-3.71,5.27-4.26,2.3-.56,4.46-.08,6.46,1.45,2.05,1.55,3.34,3.69,3.86,6.44.52,2.75.18,5.26-1.03,7.55-1.23,2.33-2.99,3.78-5.28,4.35-2.28.57-4.45.08-6.5-1.46-2.01-1.52-3.28-3.66-3.83-6.42-.55-2.76-.2-5.3,1.03-7.63Z"/>
    <path class="cls-3" d="m1463.14,1349.26l-8.25,11.02-63.88-66.74c-3.79-3.91-6.47-8.01-8.04-12.29-1.58-4.28-1.98-8.66-1.21-13.11s2.81-8.9,6.13-13.33l1.64-2.19,8.88,9.21-1.5,2.01c-2.34,3.13-3.29,6.26-2.86,9.41.43,3.14,2.16,6.26,5.17,9.34l63.93,66.68Zm5.63,15.71c1.55-2.07,3.51-3.2,5.87-3.4,2.36-.2,4.42.61,6.16,2.43,1.79,1.84,2.73,4.16,2.82,6.96.09,2.79-.63,5.23-2.18,7.3-1.58,2.11-3.54,3.27-5.89,3.48-2.34.21-4.41-.61-6.19-2.45-1.75-1.81-2.68-4.13-2.79-6.94-.11-2.81.62-5.27,2.2-7.38Z"/>
    <path class="cls-3" d="m1315.67,1382.41l46.89,13.94-2.08,14.81-57.92-17.04,13.11-11.7Zm40.14-35.8l61.43,97.09-10.22,9.12-61.43-97.09,10.22-9.11Zm6.96,34.77l9.19,14.53-1.87,1.67-6.77,56.29-12.66,11.29,7.46-60.78,1.14-1.01,3.52-22Z"/>
    <path class="cls-3" d="m1287.83,1537.79l-40.89-107.37,11.83-6.9,40.89,107.37-11.83,6.9Z"/>
    <path class="cls-3" d="m1193.66,1461.78l9.7,85.67-12.8,3.65-2.29-19.12,1.2.05c-.57,5.01-1.88,9.36-3.92,13.02s-4.54,6.66-7.49,8.98c-2.95,2.32-6.11,3.96-9.48,4.92-4.19,1.19-7.94,1.29-11.23.27-3.29-1.01-6.07-2.85-8.33-5.5-2.26-2.65-3.99-5.89-5.18-9.72l1.86.42c-.5,4.52-1.83,8.66-3.98,12.41-2.15,3.75-4.93,6.95-8.33,9.61-3.41,2.66-7.21,4.59-11.4,5.78-4.88,1.39-9.45,1.55-13.71.47-4.26-1.08-7.85-3.49-10.76-7.22-2.91-3.73-4.73-8.92-5.46-15.57l-6.52-57.31,13.17-3.75,6.54,57.94c.44,4.15,1.55,7.23,3.31,9.26s3.9,3.23,6.4,3.59c2.5.37,5.12.16,7.85-.62,3.9-1.11,7.16-2.92,9.76-5.43,2.61-2.51,4.48-5.42,5.62-8.72,1.14-3.31,1.52-6.75,1.13-10.33l-6.31-55.47,13.17-3.75,6.75,59.22c.54,4.86,2.42,8.22,5.65,10.1,3.22,1.88,6.98,2.2,11.27.98,3.32-.95,6.34-2.64,9.07-5.08,2.73-2.44,4.81-5.5,6.25-9.18,1.43-3.68,1.89-7.81,1.37-12.41l-6.04-53.41,13.17-3.75Z"/>
    <path class="cls-3" d="m1002.32,1548.94l9.58-50.31,13.69.31-16.06,84.71-13.16-.3,3.81-20.53,1.97.5c-3.98,7.62-8.59,12.98-13.83,16.09-5.24,3.1-11.03,4.58-17.37,4.44-5.88-.13-10.82-1.46-14.82-3.99-4-2.53-6.8-6.22-8.39-11.07-1.59-4.86-1.7-10.87-.32-18.04l10.11-53.34,13.69.31-10.1,53.11c-1.26,6.62-.57,11.71,2.09,15.27,2.66,3.56,6.85,5.4,12.58,5.53,4.16.09,8.08-.74,11.77-2.51,3.69-1.77,6.85-4.36,9.46-7.78,2.61-3.42,4.38-7.55,5.3-12.4Z"/>
    <path class="cls-3" d="m863.55,1478.52c6.57,1.91,11.83,4.93,15.75,9.05,3.93,4.12,6.44,9.06,7.54,14.82,1.1,5.76.67,12-1.28,18.72-1.88,6.48-4.71,12.47-8.5,17.97-3.79,5.5-8.3,10.12-13.53,13.86-5.23,3.74-10.97,6.24-17.23,7.51-6.26,1.27-12.8.92-19.61-1.06-6.58-1.91-11.85-4.92-15.83-9.03-3.98-4.11-6.52-9.05-7.62-14.81-1.1-5.76-.66-12.05,1.32-18.87,1.91-6.57,4.77-12.61,8.58-18.1,3.81-5.49,8.36-10.09,13.63-13.79,5.27-3.7,11.03-6.16,17.27-7.38,6.24-1.22,12.75-.85,19.52,1.11Zm-3.71,11.68c-5.02-1.46-9.77-1.57-14.28-.34-4.5,1.23-8.6,3.38-12.29,6.45-3.69,3.07-6.86,6.71-9.5,10.9-2.64,4.2-4.62,8.53-5.92,13.02-1.2,4.14-1.63,8.06-1.27,11.75.35,3.69,1.64,6.92,3.85,9.67,2.21,2.75,5.56,4.78,10.04,6.08,4.97,1.44,9.69,1.55,14.17.31,4.48-1.23,8.57-3.4,12.26-6.5,3.7-3.1,6.87-6.76,9.52-10.98,2.65-4.22,4.64-8.6,5.95-13.12,1.78-6.14,1.8-11.73.04-16.78-1.75-5.05-5.94-8.54-12.57-10.46Z"/>
    <path class="cls-3" d="m794.58,1423.52l-77.36,89.69-11.3-6.89,9.03-10.44-.58-.36c-1.94.84-4.42,1.68-7.47,2.53-3.04.85-6.53,1.09-10.45.71-3.93-.37-8.19-1.96-12.78-4.76-5.33-3.25-9.23-7.23-11.7-11.94-2.47-4.71-3.45-9.88-2.93-15.51.52-5.62,2.61-11.45,6.28-17.47,3.43-5.63,7.65-10.68,12.65-15.14,5.01-4.46,10.44-7.94,16.29-10.43,5.85-2.49,11.87-3.67,18.05-3.52,6.18.14,12.17,1.98,17.97,5.52,4.72,2.88,7.9,5.92,9.53,9.15,1.63,3.22,2.43,6.25,2.4,9.08-.03,2.83-.17,5.09-.43,6.77l1.1.67,30.02-34.8,11.69,7.12Zm-59.13,13.41c-4.33-2.64-8.8-3.91-13.41-3.8-4.61.1-9.11,1.21-13.51,3.31-4.4,2.1-8.43,4.87-12.1,8.31-3.67,3.44-6.73,7.17-9.18,11.2-3.38,5.54-4.83,10.88-4.36,16,.47,5.13,3.5,9.39,9.08,12.8,4.37,2.67,8.83,3.97,13.38,3.92,4.55-.05,8.95-1.12,13.22-3.21,4.27-2.09,8.23-4.88,11.86-8.36,3.64-3.48,6.74-7.33,9.3-11.53,3.51-5.76,4.99-11.17,4.45-16.22-.54-5.05-3.46-9.19-8.74-12.41Z"/>
    <path class="cls-3" d="m641.43,1304l9.48,9.99-37.73,25.44.84.88c2.23-.37,4.92-.6,8.06-.68,3.14-.08,6.5.53,10.07,1.82,3.57,1.3,7.16,3.84,10.75,7.62,4.26,4.49,6.95,9.33,8.07,14.52,1.12,5.19.68,10.44-1.32,15.73-2,5.29-5.56,10.37-10.67,15.22-4.85,4.61-10.27,8.41-16.25,11.39-5.98,2.98-12.12,4.9-18.42,5.74-6.3.84-12.39.37-18.29-1.42-5.89-1.78-11.17-5.14-15.85-10.07-3.88-4.08-6.21-7.92-6.99-11.51-.79-3.59-.81-6.78-.07-9.58.74-2.8,1.43-5.03,2.08-6.7l-.52-.55-12.16,8.19-9.17-9.65,98.09-66.38Zm-9.09,51.74c-3.53-3.71-7.52-6.11-11.97-7.2-4.45-1.08-9.06-1.15-13.82-.2s-9.38,2.64-13.85,5.08c-4.47,2.43-8.46,5.3-11.95,8.62-4.82,4.57-7.58,9.33-8.28,14.26-.7,4.93,1.13,9.7,5.49,14.29,3.49,3.68,7.44,6.09,11.84,7.22,4.4,1.14,8.94,1.28,13.63.43,4.69-.85,9.23-2.43,13.63-4.76,4.4-2.32,8.35-5.15,11.84-8.46,4.78-4.54,7.66-9.39,8.64-14.55.98-5.16-.75-10.07-5.19-14.74Z"/>
    <path class="cls-3" d="m577.96,1272.37l-80.5,30.85-6.69-11.42,12.37-4.78-.46-.79c-4.85.25-9.53-.9-14.05-3.45-4.52-2.55-8.07-6.02-10.63-10.39-.51-.87-1.09-1.92-1.74-3.12-.65-1.21-1.15-2.17-1.52-2.9l13.03-4.99c.22.58.63,1.58,1.24,3.02.61,1.44,1.33,2.88,2.18,4.32,2.05,3.5,4.69,6.33,7.93,8.49,3.24,2.16,6.72,3.49,10.44,3.98,3.73.49,7.42.05,11.08-1.33l50.41-19.31,6.92,11.81Z"/>
    <path class="cls-3" d="m525.27,1158.52c1.74,5.41,2.49,10.38,2.24,14.9-.25,4.53-1.46,8.46-3.63,11.8-2.17,3.34-5.31,5.93-9.4,7.78-.32.16-.64.3-.94.42-.31.13-.63.24-.97.35l-6.16-11.92c4.32-1.82,7-4.41,8.04-7.78,1.05-3.37.81-7.4-.69-12.08-1.26-3.91-2.99-7.22-5.19-9.92-2.2-2.7-4.6-4.7-7.2-5.99-2.6-1.29-5.15-1.75-7.64-1.38-2.68.44-4.63,1.7-5.85,3.8-1.22,2.1-1.67,5.2-1.36,9.31l.99,13.99c.53,7.61-.62,13.56-3.44,17.85-2.83,4.29-7.34,6.91-13.54,7.84-4.74.67-9.32.02-13.74-1.97-4.42-1.99-8.34-5.03-11.77-9.12-3.42-4.09-6.03-8.94-7.84-14.54-2.5-7.77-2.83-14.21-.98-19.3,1.85-5.1,5.03-9.09,9.53-11.98.44-.3.89-.59,1.36-.88.47-.28.96-.54,1.48-.75l6.02,11.25c-2.69,1.56-4.81,3.75-6.36,6.56-1.54,2.81-1.51,6.73.11,11.75,1.07,3.33,2.62,6.24,4.65,8.73,2.03,2.49,4.28,4.36,6.76,5.62,2.48,1.25,4.99,1.68,7.53,1.29,2.96-.42,4.97-1.79,6.03-4.1,1.07-2.31,1.43-5.92,1.07-10.81l-.88-12.66c-.53-7.61.62-13.55,3.46-17.81,2.84-4.27,7.28-6.85,13.34-7.73,3.61-.52,7.19-.26,10.72.78,3.53,1.05,6.86,2.79,9.99,5.22,3.13,2.43,5.91,5.46,8.36,9.1,2.45,3.63,4.42,7.77,5.91,12.4Z"/>
    <path class="cls-3" d="m395.43,1061.54l-1.37-13.62,84.18,5.37c3.95.27,6.71-.34,8.26-1.82,1.56-1.48,2.16-3.96,1.81-7.45-.09-.86-.3-1.96-.64-3.3-.34-1.34-.67-2.58-.99-3.72l11.42-1.99c.59,1.32,1.12,2.87,1.58,4.66.46,1.79.78,3.62.97,5.48.75,7.42-.65,13.02-4.2,16.82-3.54,3.8-8.8,5.49-15.78,5.07l-85.27-5.49Zm17.36-29.65l11.85.72,4.4,43.75-11.85-.72-4.4-43.75Z"/>
    <path class="cls-3" d="m500.64,953.26c-.67,5.64-2.39,10.28-5.16,13.91-2.78,3.63-6.63,5.99-11.56,7.06-4.93,1.08-10.9.62-17.91-1.38l-52.6-15.16,1.6-13.6,51.49,14.8c6.32,1.82,11.5,1.57,15.52-.74,4.03-2.31,6.39-6.43,7.09-12.38.47-3.98.04-7.82-1.28-11.53-1.33-3.7-3.53-6.99-6.61-9.86-3.08-2.86-7.02-4.99-11.81-6.37l-49.64-14.28,1.61-13.67,82.82,23.93-1.55,13.15-20.07-5.81.21-1.81c7.45,4.81,12.47,10.08,15.07,15.79,2.59,5.72,3.52,11.7,2.79,17.95Z"/>
    <path class="cls-3" d="m526.55,831.34l-85.91-13.87,5.21-13.32,50.54,9.25c5.23.96,10.36,2.15,15.39,3.58,5.03,1.42,9.92,2.72,14.7,3.88l-1.83,4.68c-3.7-3.9-7.56-7.81-11.58-11.73-4.02-3.92-7.98-8.13-11.87-12.66l-37.31-43.04,5.69-14.52,62.22,74.36-5.24,13.39Z"/>
    <path class="cls-3" d="m578.2,725.06l-74.29-43.02,8.93-11.46,31.86,19.51c4.34,2.68,9.21,5.76,14.59,9.24,5.38,3.49,11.39,7.62,18.02,12.4l-1.45,1.86c-4.41-6.97-8.34-13.45-11.8-19.46-3.46-6-6.59-11.61-9.41-16.83l-19.24-35.72,8.98-11.52,31.67,19.75c4.34,2.68,9.18,5.79,14.52,9.33,5.34,3.55,11.3,7.73,17.9,12.55l-1.5,1.92c-4.42-7.04-8.32-13.56-11.73-19.55-3.4-5.99-6.51-11.63-9.34-16.92l-19.14-35.84,8.93-11.46,42.6,83.71-8.37,10.74-33.22-19.99c-3.09-1.89-6.34-3.91-9.75-6.05-3.41-2.14-6.95-4.43-10.61-6.87-3.66-2.43-7.39-4.94-11.18-7.5l1.82-2.34c2.47,4.18,4.86,8.3,7.18,12.39,2.31,4.09,4.54,8.05,6.68,11.91,2.14,3.85,4.16,7.58,6.05,11.17l19.65,37.29-8.37,10.74Z"/>
    <path class="cls-3" d="m668.56,621.39l5.21-64.06,4.66,9.58-46.77-23.77,12.46-8.99,16.07,8.76c4.18,2.24,7.89,4.47,11.15,6.68,3.25,2.22,6.53,4.26,9.82,6.14l-5.8,4.18c.2-4.4.21-8.81.02-13.24-.19-4.43-.13-9.38.17-14.85l1.33-21.31,13.2-9.52-4.52,61.5-4.62-9.14,48.58,24.06-12.59,9.08-18.76-10.02c-4.08-2.19-7.7-4.34-10.86-6.47-3.16-2.13-6.34-4.07-9.55-5.82l5.86-4.23c-.21,4.22-.23,8.46-.05,12.74.18,4.28.09,9.12-.28,14.5l-1.61,24.7-13.14,9.48Z"/>
    <path class="cls-3" d="m782.06,581.43l.73-13.05,1.31-.19c2.84-.41,5.29-1.21,7.36-2.38,2.07-1.17,3.74-3.03,5-5.57,1.26-2.54,2.09-6.05,2.51-10.52l.72-7.89-48.49-72.77,13.3-5.26,27.67,43.29c2.86,4.49,5.47,9.06,7.83,13.71,2.36,4.66,4.74,9.13,7.14,13.41l-4.67,1.85c.33-5.37.56-10.87.67-16.5.12-5.64.51-11.4,1.19-17.28l6.15-56.66,14.5-5.73-13.86,110.6c-.62,5.04-1.76,9.46-3.39,13.24-1.64,3.78-3.79,6.97-6.45,9.54-2.66,2.58-5.88,4.61-9.65,6.11-2.08.82-3.99,1.39-5.75,1.7-1.76.31-3.03.43-3.82.37Z"/>
    <path class="cls-3" d="m892.31,510.53l.45-10.33,49.02-68.04.04-.85-45.2,5.74.44-12.86,63.32-8.05-.44,11.02-47.6,67.17-.05.85,46.79-5.95-.44,12.86-66.33,8.43Z"/>
  </g>
  <g>
    <g>
      <path class="cls-2" d="m207.48,869.14C303.98-9.82,1659.3-61.04,1792.44,861.42"/>
      <g>
        <path class="cls-3" d="m90.29,849.44c46.91,33.04,82.01,81.46,108.27,132.1,33.48-46.37,77.02-86.67,127.7-113.43l2.3-29.12c-49.2,26.85-92.73,60.41-126.9,103.39-27.44-47.86-65.52-89.31-109.03-122.53l-2.34,29.6Z"/>
        <path class="cls-3" d="m95.84,779.24c46.91,33.04,82.01,81.46,108.27,132.08,33.48-46.37,77.02-86.65,127.7-113.41l2.3-29.12c-49.2,26.84-92.73,60.42-126.9,103.36-27.44-47.82-65.53-89.29-109.03-122.51l-2.34,29.6Z"/>
      </g>
    </g>
    <g>
      <path class="cls-2" d="m1792.48,1131.14c-95.36,870.85-1434.2,932.27-1582.52,22.04"/>
      <g>
        <path class="cls-3" d="m1909.71,1149.78c-46.92-33.02-82.05-81.43-108.32-132.06-33.46,46.39-76.98,86.71-127.65,113.49l-2.29,29.12c49.19-26.87,92.71-60.44,126.86-103.44,27.46,47.84,65.56,89.28,109.08,122.49l2.33-29.6Z"/>
        <path class="cls-3" d="m1904.19,1219.98c-46.92-33.02-82.04-81.43-108.33-132.04-33.46,46.39-76.98,86.68-127.65,113.46l-2.29,29.12c49.18-26.86,92.71-60.45,126.86-103.41,27.46,47.81,65.56,89.26,109.08,122.47l2.33-29.6Z"/>
      </g>
    </g>
  </g>
</svg>